<svg width="40" height="40" viewBox="0 0 40 40" fill="none" xmlns="http://www.w3.org/2000/svg">
<circle cx="20" cy="20" r="19.5" stroke="#E6D8CC"/>
<path d="M19.9792 11.8012C22.6445 11.8012 22.9574 11.8131 24.0108 11.8606C24.9851 11.9042 25.5118 12.0665 25.8643 12.2052C26.3316 12.3873 26.6643 12.6012 27.0128 12.9497C27.3613 13.2982 27.5792 13.6309 27.7574 14.0982C27.892 14.4507 28.0584 14.9774 28.1019 15.9517C28.1495 17.0052 28.1613 17.318 28.1613 19.9834C28.1613 22.6487 28.1495 22.9616 28.1019 24.0151C28.0584 24.9893 27.896 25.516 27.7574 25.8685C27.5752 26.3358 27.3613 26.6685 27.0128 27.017C26.6643 27.3656 26.3316 27.5834 25.8643 27.7616C25.5118 27.8962 24.9851 28.0626 24.0108 28.1061C22.9574 28.1537 22.6445 28.1656 19.9792 28.1656C17.3138 28.1656 17.0009 28.1537 15.9475 28.1061C14.9732 28.0626 14.4465 27.9002 14.094 27.7616C13.6267 27.5794 13.294 27.3656 12.9455 27.017C12.597 26.6685 12.3792 26.3358 12.2009 25.8685C12.0663 25.516 11.9 24.9893 11.8564 24.0151C11.8089 22.9616 11.797 22.6487 11.797 19.9834C11.797 17.318 11.8089 17.0052 11.8564 15.9517C11.9 14.9774 12.0623 14.4507 12.2009 14.0982C12.3831 13.6309 12.597 13.2982 12.9455 12.9497C13.294 12.6012 13.6267 12.3834 14.094 12.2052C14.4465 12.0705 14.9732 11.9042 15.9475 11.8606C17.0009 11.8091 17.3138 11.8012 19.9792 11.8012ZM19.9792 10.0032C17.2703 10.0032 16.9297 10.0151 15.8643 10.0626C14.8029 10.1101 14.0782 10.2804 13.4445 10.5259C12.7871 10.7794 12.2326 11.124 11.6782 11.6784C11.1237 12.2329 10.7831 12.7913 10.5257 13.4448C10.2802 14.0784 10.1099 14.8032 10.0623 15.8685C10.0148 16.9299 10.0029 17.2705 10.0029 19.9794C10.0029 22.6883 10.0148 23.0289 10.0623 24.0943C10.1099 25.1557 10.2802 25.8804 10.5257 26.518C10.7792 27.1755 11.1237 27.7299 11.6782 28.2844C12.2326 28.8388 12.791 29.1794 13.4445 29.4368C14.0782 29.6824 14.8029 29.8527 15.8683 29.9002C16.9336 29.9477 17.2703 29.9596 19.9831 29.9596C22.696 29.9596 23.0326 29.9477 24.098 29.9002C25.1594 29.8527 25.8841 29.6824 26.5217 29.4368C27.1792 29.1834 27.7336 28.8388 28.2881 28.2844C28.8425 27.7299 29.1831 27.1715 29.4406 26.518C29.6861 25.8844 29.8564 25.1596 29.9039 24.0943C29.9514 23.0289 29.9633 22.6923 29.9633 19.9794C29.9633 17.2665 29.9514 16.9299 29.9039 15.8646C29.8564 14.8032 29.6861 14.0784 29.4406 13.4408C29.1871 12.7834 28.8425 12.2289 28.2881 11.6745C27.7336 11.12 27.1752 10.7794 26.5217 10.522C25.8881 10.2764 25.1633 10.1061 24.098 10.0586C23.0287 10.0151 22.6881 10.0032 19.9792 10.0032Z" fill="#996830"/>
<path d="M19.9792 14.8547C17.1514 14.8547 14.8544 17.1478 14.8544 19.9795C14.8544 22.8112 17.1514 25.1042 19.9792 25.1042C22.8069 25.1042 25.1039 22.8072 25.1039 19.9795C25.1039 17.1518 22.8069 14.8547 19.9792 14.8547ZM19.9792 23.3062C18.1415 23.3062 16.6524 21.8171 16.6524 19.9795C16.6524 18.1419 18.1415 16.6528 19.9792 16.6528C21.8168 16.6528 23.3059 18.1419 23.3059 19.9795C23.3059 21.8171 21.8168 23.3062 19.9792 23.3062Z" fill="#996830"/>
<path d="M25.3059 15.8489C25.9665 15.8489 26.5019 15.3134 26.5019 14.6528C26.5019 13.9923 25.9665 13.4568 25.3059 13.4568C24.6453 13.4568 24.1099 13.9923 24.1099 14.6528C24.1099 15.3134 24.6453 15.8489 25.3059 15.8489Z" fill="#996830"/>
</svg>
