<svg width="118" height="118" viewBox="0 0 118 118" fill="none" xmlns="http://www.w3.org/2000/svg">
<path d="M104.077 61.1887L111.988 65.6517L111.87 66.6044L103.111 68.9771L103.294 67.5004L110.377 65.6698L110.315 66.1699L103.897 62.6416L104.077 61.1887ZM105.475 63.0791L106.666 63.2267L106.118 67.6449L104.927 67.4972L105.475 63.0791Z" fill="#444444"/>
<path d="M101.581 73.9561L110.384 74.785L109.842 76.0279L103.084 75.3445L103.228 75.0146L108.345 79.4595L107.961 80.3395L101.222 79.6121L101.366 79.2822L106.464 83.7712L105.922 85.0141L99.3264 79.1256L99.7102 78.2457L106.443 78.9572L106.299 79.2872L101.198 74.836L101.581 73.9561Z" fill="#444444"/>
<path d="M95.6495 85.3317L99.8626 93.3786L99.2455 94.114L90.6047 91.3435L91.5612 90.2036L98.5012 92.5182L98.1772 92.9042L94.7084 86.4531L95.6495 85.3317ZM95.7951 87.6783L96.7143 88.4497L93.8526 91.8601L92.9333 91.0887L95.7951 87.6783Z" fill="#444444"/>
<path d="M89.7145 96.6915L90.3919 97.6085L88.6834 98.8705C88.3423 99.1224 88.1427 99.4041 88.0844 99.7157C88.0244 100.038 88.1109 100.358 88.3438 100.673C88.553 100.956 88.8221 101.125 89.1513 101.18C89.4805 101.236 89.8157 101.137 90.1567 100.885L91.8748 99.6162L92.5878 100.581L90.8214 101.886C90.3967 102.2 89.9593 102.389 89.5092 102.453C89.0639 102.523 88.6451 102.474 88.2527 102.307C87.8586 102.15 87.5237 101.885 87.2481 101.512C86.9581 101.12 86.7963 100.712 86.7626 100.289C86.7224 99.8714 86.8038 99.4631 87.0067 99.0646C87.2096 98.6661 87.5235 98.31 87.9482 97.9963L89.7145 96.6915ZM88.3596 93.2615L93.3503 100.018L92.2403 100.838L87.2495 94.0815L88.3596 93.2615ZM84.6531 95.9993L89.1853 97.1869L88.4306 98.3262L83.2535 97.0331L84.6531 95.9993Z" fill="#444444"/>
<path d="M78.2821 99.7234L78.7686 100.886L76.7318 101.738C76.2004 101.961 75.7834 102.27 75.4807 102.665C75.1705 103.064 74.9897 103.512 74.9382 104.011C74.8824 104.52 74.9673 105.044 75.1928 105.583C75.4152 106.114 75.7257 106.535 76.1244 106.845C76.523 107.155 76.9732 107.339 77.4748 107.398C77.969 107.46 78.4781 107.382 79.0021 107.162L81.0389 106.31L81.5254 107.472L79.4554 108.338C78.8945 108.573 78.3326 108.691 77.7695 108.693C77.2095 108.702 76.6783 108.603 76.1758 108.397C75.669 108.202 75.2172 107.91 74.8202 107.521C74.4264 107.139 74.1136 106.672 73.8819 106.118C73.6534 105.572 73.5399 105.021 73.5414 104.466C73.543 103.91 73.6467 103.381 73.8527 102.878C74.0617 102.383 74.3644 101.936 74.7607 101.536C75.16 101.143 75.6365 100.831 76.1899 100.599L78.2821 99.7234ZM79.1565 99.3574L82.3999 107.106L81.1269 107.639L77.8836 99.8902L79.1565 99.3574Z" fill="#444444"/>
<path d="M58.0346 104.106L60.0065 112.725L58.6563 112.6L57.187 105.968L57.5454 106.001L54.9283 112.254L53.9724 112.165L52.5509 105.538L52.9093 105.571L50.2445 111.819L48.8943 111.694L52.4188 103.585L53.3747 103.674L54.8093 110.291L54.4508 110.257L57.0787 104.018L58.0346 104.106Z" fill="#444444"/>
<path d="M45.971 102.097L43.3479 110.077L42.0369 109.646L44.66 101.666L45.971 102.097Z" fill="#444444"/>
<path d="M39.6422 99.7343L35.5577 107.074L34.7188 106.608L35.122 105.019L38.4363 99.0633L39.6422 99.7343ZM34.5565 96.9044L35.7584 105.085L34.7188 106.608L33.517 98.4271L34.5565 96.9044ZM34.5565 96.9044L34.2058 98.3984L30.8391 104.449L29.6332 103.778L33.7176 96.4376L34.5565 96.9044Z" fill="#444444"/>
<path d="M30.1893 93.6853L24.4247 99.7951L23.7264 99.1363L24.508 97.6959L29.1855 92.7382L30.1893 93.6853ZM25.956 89.6913L25.1086 97.9161L23.7264 99.1363L24.5739 90.9114L25.956 89.6913ZM25.956 89.6913L25.2486 91.0531L20.497 96.0893L19.4932 95.1423L25.2578 89.0324L25.956 89.6913Z" fill="#444444"/>
<path d="M23.2506 86.3574L16.4577 91.2987L15.6459 90.1827L22.4388 85.2414L23.2506 86.3574Z" fill="#444444"/>
<path d="M19.5028 80.7672L11.9069 84.3537L11.497 83.4856L12.75 82.4295L18.9136 79.5193L19.5028 80.7672ZM17.0179 75.5044L13.229 82.8536L11.497 83.4856L15.2859 76.1364L17.0179 75.5044ZM17.0179 75.5044L15.8625 76.5144L9.6013 79.4706L9.0121 78.2227L16.608 74.6363L17.0179 75.5044Z" fill="#444444"/>
<path d="M14.8945 67.3554C14.9959 67.9224 14.9815 68.4776 14.8511 69.0211C14.7208 69.5645 14.4965 70.0597 14.1782 70.5068C13.8521 70.9552 13.4528 71.3354 12.9803 71.6475C12.4986 71.9531 11.9625 72.1587 11.3718 72.2644C10.7812 72.37 10.2109 72.3623 9.66103 72.2412C9.10971 72.1123 8.60731 71.8933 8.15382 71.5844C7.69105 71.2689 7.30757 70.8743 7.00338 70.4004C6.68991 69.9201 6.47965 69.3807 6.3726 68.7822C6.25568 68.1286 6.27322 67.4997 6.42521 66.8955C6.57719 66.2913 6.85169 65.7586 7.24871 65.2975L8.33489 66.0541C8.03206 66.3602 7.8267 66.7342 7.71883 67.1761C7.60307 67.6194 7.58746 68.0773 7.67197 68.5498C7.77339 69.1168 7.98884 69.5943 8.31831 69.9824C8.63851 70.364 9.04023 70.6334 9.52349 70.7908C10.0067 70.9482 10.5398 70.9747 11.1225 70.8705C11.7053 70.7663 12.1999 70.5559 12.6066 70.2393C13.0039 69.9163 13.2919 69.5275 13.4707 69.0729C13.6494 68.6184 13.6923 68.1312 13.5994 67.6115C13.5008 67.0602 13.3178 66.6053 13.0505 66.2468C12.7739 65.8818 12.4197 65.6282 11.9879 65.486C11.5483 65.3452 11.0371 65.3269 10.4543 65.4312L10.9164 64.4708L11.5482 68.0027L10.3079 68.2246L9.57682 64.1375L9.76582 64.1037C10.7502 63.9276 11.6009 63.9583 12.3179 64.1957C13.0335 64.4253 13.607 64.8144 14.0383 65.363C14.4697 65.9117 14.7551 66.5758 14.8945 67.3554Z" fill="#444444"/>
<path d="M15.2402 48.2554L14.0319 47.8983L14.6577 45.7808C14.8209 45.2285 14.8449 44.71 14.7295 44.2254C14.6164 43.7332 14.3828 43.3096 14.0289 42.9547C13.6696 42.5899 13.2099 42.3248 12.6498 42.1592C12.0974 41.996 11.5751 41.9709 11.0829 42.084C10.5906 42.1972 10.1632 42.4295 9.80068 42.7812C9.44041 43.1252 9.17978 43.5696 9.01879 44.1143L8.39298 46.2317L7.18465 45.8746L7.82066 43.7226C7.99299 43.1396 8.25642 42.6293 8.61094 42.1918C8.9578 41.7521 9.36977 41.4025 9.84686 41.1431C10.3185 40.8738 10.8305 40.7081 11.3827 40.6461C11.9273 40.5818 12.4873 40.6346 13.0627 40.8047C13.6304 40.9725 14.1291 41.2325 14.5589 41.5848C14.9887 41.937 15.3333 42.3517 15.5927 42.8288C15.8445 43.3036 16.0002 43.821 16.06 44.3809C16.1121 44.9385 16.0531 45.505 15.883 46.0804L15.2402 48.2554ZM14.9715 49.1645L6.91595 46.7837L7.30709 45.4603L15.3626 47.8411L14.9715 49.1645Z" fill="#444444"/>
<path d="M18.4621 39.1827L11.1985 34.9636L11.8916 33.7703L19.1552 37.9894L18.4621 39.1827ZM18.9382 38.3629L17.8487 37.7301L20.2114 33.6625L21.3009 34.2953L18.9382 38.3629ZM15.7526 36.5126L14.7046 35.9038L16.8624 32.189L17.9104 32.7978L15.7526 36.5126ZM12.7642 34.7767L11.6747 34.1439L14.0072 30.1282L15.0967 30.761L12.7642 34.7767Z" fill="#444444"/>
<path d="M26.0226 28.5555C25.5758 29.0467 25.1075 29.3831 24.6177 29.5648C24.128 29.7466 23.5877 29.8174 22.9968 29.7774L22.9343 28.4552C23.339 28.5096 23.72 28.4831 24.0773 28.3756C24.4288 28.2627 24.7714 28.0229 25.1051 27.656C25.4174 27.3127 25.594 26.9759 25.635 26.6455C25.6814 26.3092 25.5803 26.028 25.3318 25.8019C25.1247 25.6135 24.9076 25.5133 24.6805 25.5014C24.4534 25.4895 24.2177 25.5346 23.9733 25.6367C23.7284 25.7276 23.4766 25.8499 23.2177 26.0038C22.9582 26.1463 22.6902 26.2864 22.4135 26.424C22.1364 26.5504 21.8519 26.6431 21.5602 26.7022C21.2739 26.7554 20.9787 26.741 20.6747 26.6591C20.3707 26.5772 20.0589 26.3909 19.7394 26.1002C19.3725 25.7665 19.1425 25.3951 19.0496 24.9861C18.9561 24.5657 18.9813 24.1398 19.1251 23.7083C19.2689 23.2767 19.5131 22.8716 19.8577 22.4929C20.2291 22.0845 20.6401 21.7933 21.0906 21.6191C21.5464 21.439 21.9901 21.3614 22.4217 21.3863L22.4842 22.7085C22.1215 22.703 21.804 22.7548 21.5317 22.864C21.2588 22.9618 21.0093 23.135 20.7832 23.3835C20.5033 23.6913 20.3447 23.9904 20.3075 24.281C20.2756 24.5657 20.3721 24.8103 20.597 25.0148C20.7864 25.1871 20.9887 25.2738 21.2039 25.275C21.4133 25.2707 21.6374 25.2205 21.8764 25.1243C22.1148 25.0167 22.3637 24.8917 22.6232 24.7492C22.888 24.6007 23.159 24.4633 23.4362 24.337C23.7187 24.2047 24.0091 24.1173 24.3072 24.0749C24.6049 24.0212 24.9116 24.0407 25.2274 24.1333C25.5433 24.226 25.8669 24.4231 26.1983 24.7246C26.7546 25.2306 27.0151 25.8299 26.9799 26.5225C26.95 27.2091 26.631 27.8868 26.0226 28.5555Z" fill="#444444"/>
<path d="M30.1577 24.4351L24.9479 17.8459L26.0304 16.99L31.2403 23.5792L30.1577 24.4351Z" fill="#444444"/>
<path d="M38.2054 19.2153C37.6921 19.4766 37.1565 19.6235 36.5986 19.6562C36.0406 19.6888 35.5017 19.6175 34.9816 19.4424C34.458 19.2601 33.9784 18.988 33.5429 18.6262C33.1109 18.2536 32.7588 17.8 32.4866 17.2652C32.2145 16.7305 32.0567 16.1825 32.0133 15.6211C31.9771 15.056 32.0411 14.5117 32.2055 13.9882C32.3735 13.4539 32.6401 12.9726 33.0056 12.5442C33.3745 12.1051 33.8299 11.7476 34.3718 11.4718C34.9635 11.1706 35.5706 11.0053 36.1929 10.9758C36.8152 10.9462 37.4045 11.0547 37.9609 11.3012L37.5513 12.5599C37.1706 12.3587 36.7531 12.2705 36.2989 12.2952C35.8411 12.3128 35.3983 12.4305 34.9705 12.6482C34.4572 12.9095 34.0625 13.254 33.7865 13.6817C33.514 14.0987 33.3724 14.5612 33.3618 15.0694C33.3511 15.5775 33.48 16.0953 33.7486 16.6229C34.0171 17.1505 34.3617 17.5631 34.7825 17.8606C35.2067 18.1474 35.6623 18.3105 36.1491 18.3499C36.636 18.3894 37.1147 18.2893 37.5852 18.0498C38.0843 17.7958 38.4667 17.4889 38.7325 17.1293C39.0018 16.7588 39.1419 16.3464 39.153 15.8919C39.1604 15.4303 39.0298 14.9357 38.7613 14.4081L39.8143 14.5723L36.6167 16.1999L36.0452 15.077L39.7454 13.1936L39.8325 13.3647C40.2861 14.2559 40.5031 15.079 40.4835 15.8341C40.471 16.5855 40.2646 17.2471 39.8644 17.8188C39.4642 18.3906 38.9112 18.8561 38.2054 19.2153Z" fill="#444444"/>
<path d="M46.7264 15.589L44.9953 7.36934L45.9347 7.1715L46.6721 8.63494L48.0768 15.3046L46.7264 15.589ZM52.4215 14.3896L46.1487 9.00271L45.9347 7.1715L52.2075 12.5584L52.4215 14.3896ZM52.4215 14.3896L51.7063 13.0319L50.2794 6.2565L51.6298 5.97211L53.3608 14.1918L52.4215 14.3896Z" fill="#444444"/>
<path d="M69.361 15.3212C68.7134 15.1744 68.1899 14.9328 67.7904 14.5962C67.3909 14.2596 67.063 13.8243 66.8066 13.2905L67.9263 12.5845C68.0783 12.9634 68.2892 13.2819 68.5588 13.5399C68.8302 13.79 69.2078 13.9699 69.6916 14.0795C70.1441 14.1821 70.5242 14.1697 70.8319 14.0426C71.1474 13.9172 71.3423 13.6907 71.4166 13.363C71.4784 13.0899 71.4586 12.8516 71.357 12.6482C71.2555 12.4447 71.1001 12.2618 70.8907 12.0996C70.691 11.9313 70.4604 11.7724 70.199 11.6229C69.9471 11.4674 69.6931 11.3032 69.437 11.1304C69.1904 10.9514 68.9696 10.7496 68.7744 10.525C68.587 10.302 68.454 10.0381 68.3755 9.73324C68.2969 9.42834 68.3054 9.06523 68.4008 8.64391C68.5104 8.16017 68.7203 7.77707 69.0304 7.49461C69.35 7.20612 69.733 7.01811 70.1794 6.93058C70.6258 6.84306 71.0986 6.85587 71.598 6.96901C72.1363 7.09099 72.5923 7.30504 72.9659 7.61117C73.3473 7.91906 73.6335 8.26691 73.8245 8.65471L72.7048 9.36073C72.5309 9.04242 72.3293 8.79167 72.1001 8.6085C71.8805 8.41929 71.6068 8.28756 71.2791 8.21331C70.8734 8.12139 70.535 8.13083 70.2638 8.24164C70.0004 8.35422 69.8351 8.55875 69.7679 8.85524C69.7113 9.10491 69.7356 9.32368 69.8407 9.51154C69.9475 9.6916 70.1017 9.86189 70.3032 10.0224C70.5143 10.1768 70.7458 10.3318 70.9977 10.4873C71.2573 10.6446 71.5104 10.8127 71.757 10.9916C72.0114 11.1723 72.2305 11.3819 72.4143 11.6204C72.6077 11.8529 72.7419 12.1294 72.817 12.4499C72.892 12.7704 72.88 13.1491 72.781 13.586C72.6148 14.3194 72.2217 14.8415 71.6018 15.1521C70.9896 15.4646 70.2427 15.5209 69.361 15.3212Z" fill="#444444"/>
<path d="M76.7059 17.5978L80.1349 10.1933L81.3872 10.7732L77.9582 18.1777L76.7059 17.5978ZM77.2236 9.96911L77.7531 8.82576L83.9707 11.7051L83.4413 12.8485L77.2236 9.96911Z" fill="#444444"/>
<path d="M87.3016 24.1642C86.8073 23.7704 86.4528 23.3039 86.238 22.7646C86.0232 22.2253 85.9546 21.6695 86.0321 21.0971C86.1209 20.5234 86.3622 19.9894 86.7559 19.4951L90.0009 15.4216L91.0803 16.2814L87.8428 20.3455C87.5886 20.6647 87.4325 20.9955 87.3745 21.3379C87.3277 21.6791 87.3677 22.0076 87.4946 22.3234C87.6264 22.633 87.8362 22.9024 88.1241 23.1317C88.4182 23.366 88.7277 23.5103 89.0527 23.5646C89.3826 23.6126 89.7055 23.5732 90.0213 23.4464C90.3421 23.3133 90.6272 23.0903 90.8764 22.7774L94.1213 18.7039L95.2007 19.5638L91.9483 23.6467C91.5545 24.141 91.0905 24.4924 90.5562 24.7009C90.0219 24.9094 89.471 24.9718 88.9036 24.888C88.3362 24.8042 87.8022 24.563 87.3016 24.1642Z" fill="#444444"/>
<path d="M93.5177 30.0481L94.5202 29.2848L95.8578 31.0414C96.2068 31.4997 96.6107 31.8256 97.0698 32.019C97.5336 32.2189 98.0133 32.281 98.5088 32.2054C99.0154 32.1313 99.5011 31.9173 99.9657 31.5635C100.424 31.2146 100.753 30.8082 100.953 30.3443C101.153 29.8804 101.218 29.3983 101.149 28.898C101.084 28.4041 100.88 27.9312 100.536 27.4792L99.1983 25.7226L100.201 24.9592L101.56 26.7446C101.929 27.2283 102.184 27.7424 102.327 28.287C102.477 28.8267 102.515 29.3657 102.442 29.9038C102.381 30.4435 102.212 30.9543 101.935 31.4364C101.665 31.9135 101.291 32.3339 100.814 32.6974C100.343 33.056 99.8384 33.3045 99.3002 33.4428C98.762 33.5811 98.2238 33.6139 97.6857 33.541C97.1539 33.4633 96.6446 33.283 96.1577 33.0001C95.6772 32.7124 95.2552 32.3299 94.8917 31.8525L93.5177 30.0481ZM92.9434 29.2939L99.6265 24.205L100.462 25.3029L93.7794 30.3918L92.9434 29.2939Z" fill="#444444"/>
<path d="M98.7213 37.7992L106.235 34.0444L106.852 35.2789L99.3382 39.0336L98.7213 37.7992Z" fill="#444444"/>
<path d="M102.234 46.9097C102.079 46.33 102.043 45.76 102.125 45.1998C102.207 44.6397 102.387 44.1196 102.665 43.6398C102.95 43.1579 103.315 42.7417 103.76 42.3912C104.214 42.0463 104.731 41.7965 105.311 41.6418C105.891 41.487 106.46 41.447 107.018 41.5215C107.578 41.6039 108.097 41.78 108.575 42.0499C109.062 42.3255 109.477 42.6828 109.817 43.1217C110.168 43.5664 110.42 44.0785 110.575 44.6582C110.73 45.238 110.765 45.804 110.681 46.3565C110.606 46.9146 110.426 47.4346 110.141 47.9165C109.863 48.3963 109.497 48.8087 109.043 49.1535C108.598 49.5041 108.086 49.7567 107.506 49.9114C106.926 50.0662 106.353 50.1034 105.785 50.0232C105.227 49.9486 104.708 49.7725 104.228 49.4948C103.75 49.2249 103.336 48.8676 102.985 48.423C102.637 47.9861 102.386 47.4816 102.234 46.9097ZM103.503 46.546C103.649 47.0948 103.901 47.541 104.258 47.8847C104.616 48.236 105.043 48.4699 105.538 48.5862C106.042 48.7083 106.581 48.6929 107.153 48.5402C107.578 48.4268 107.946 48.2541 108.256 48.0221C108.577 47.7958 108.832 47.5249 109.021 47.2095C109.217 46.892 109.34 46.5446 109.388 46.1674C109.439 45.7979 109.409 45.4083 109.3 44.9987C109.155 44.4576 108.904 44.0114 108.545 43.66C108.196 43.3143 107.773 43.0795 107.276 42.9554C106.782 42.839 106.248 42.8572 105.676 43.0099C105.251 43.1233 104.875 43.2943 104.546 43.5226C104.228 43.7567 103.973 44.0275 103.782 44.3352C103.593 44.6507 103.47 44.998 103.414 45.3773C103.366 45.7545 103.396 46.1441 103.503 46.546Z" fill="#444444"/>
</svg>
